<svg xmlns="http://www.w3.org/2000/svg" xmlns:xlink="http://www.w3.org/1999/xlink" width="1530" zoomAndPan="magnify" viewBox="0 0 1147.5 172.499995" height="230" preserveAspectRatio="xMidYMid meet" version="1.0"><defs><g/><clipPath id="5a7d64cf06"><path d="M 271 4.058594 L 275 4.058594 L 275 7 L 271 7 Z M 271 4.058594 " clip-rule="nonzero"/></clipPath><clipPath id="57f2c61cf5"><path d="M 264 4.058594 L 269 4.058594 L 269 7 L 264 7 Z M 264 4.058594 " clip-rule="nonzero"/></clipPath><clipPath id="52b3fc6132"><path d="M 249.703125 66.683594 L 357.90625 66.683594 L 357.90625 166.40625 L 249.703125 166.40625 Z M 249.703125 66.683594 " clip-rule="nonzero"/></clipPath></defs><path fill="#e45a8d" d="M 355.777344 21.667969 L 283.578125 21.667969 C 269.3125 21.667969 257.640625 33.335938 257.640625 47.59375 L 257.640625 119.75 C 257.640625 134.011719 269.3125 145.675781 283.578125 145.675781 L 327.351562 145.675781 C 346.632812 145.675781 343.589844 158.089844 342.234375 161.828125 C 342.050781 162.335938 342.441406 162.875 342.980469 162.859375 C 364.394531 162.121094 381.71875 141.296875 381.71875 119.75 L 381.71875 47.59375 C 381.71875 33.335938 370.042969 21.667969 355.777344 21.667969 " fill-opacity="1" fill-rule="nonzero"/><path fill="#4b3774" d="M 292.976562 17.652344 C 292.949219 17.652344 292.921875 17.652344 292.894531 17.648438 C 292.464844 17.601562 292.03125 17.5625 291.601562 17.539062 C 291.214844 17.519531 290.921875 17.191406 290.941406 16.808594 C 290.964844 16.425781 291.292969 16.136719 291.675781 16.152344 C 292.136719 16.175781 292.597656 16.214844 293.054688 16.265625 C 293.4375 16.3125 293.710938 16.65625 293.667969 17.039062 C 293.625 17.390625 293.324219 17.652344 292.976562 17.652344 Z M 287.617188 17.683594 C 287.269531 17.683594 286.972656 17.429688 286.925781 17.078125 C 286.878906 16.695312 287.148438 16.347656 287.53125 16.300781 C 287.984375 16.242188 288.445312 16.199219 288.90625 16.167969 C 289.285156 16.140625 289.621094 16.433594 289.648438 16.816406 C 289.671875 17.199219 289.382812 17.53125 289 17.554688 C 288.566406 17.585938 288.132812 17.625 287.703125 17.679688 C 287.675781 17.683594 287.644531 17.683594 287.617188 17.683594 Z M 296.945312 18.335938 C 296.902344 18.335938 296.859375 18.332031 296.816406 18.324219 L 295.496094 18.078125 C 295.121094 18.007812 294.871094 17.644531 294.941406 17.265625 C 295.011719 16.886719 295.375 16.640625 295.75 16.710938 L 297.070312 16.957031 C 297.449219 17.027344 297.699219 17.390625 297.628906 17.765625 C 297.566406 18.101562 297.273438 18.335938 296.945312 18.335938 Z M 283.6875 18.542969 C 283.390625 18.542969 283.117188 18.355469 283.023438 18.058594 C 282.910156 17.691406 283.109375 17.300781 283.480469 17.1875 C 283.917969 17.046875 284.363281 16.921875 284.8125 16.808594 C 285.179688 16.714844 285.5625 16.941406 285.652344 17.316406 C 285.75 17.6875 285.519531 18.066406 285.148438 18.160156 C 284.726562 18.265625 284.308594 18.382812 283.894531 18.511719 C 283.828125 18.535156 283.753906 18.542969 283.6875 18.542969 " fill-opacity="1" fill-rule="nonzero"/><path fill="#4b3774" d="M 254.578125 108.707031 C 254.554688 108.707031 254.53125 108.707031 254.507812 108.703125 C 254.125 108.664062 253.847656 108.324219 253.886719 107.941406 C 253.933594 107.460938 253.992188 107.003906 254.066406 106.566406 C 254.125 106.1875 254.484375 105.933594 254.863281 105.996094 C 255.242188 106.058594 255.5 106.414062 255.4375 106.792969 C 255.371094 107.199219 255.316406 107.632812 255.269531 108.082031 C 255.234375 108.4375 254.929688 108.707031 254.578125 108.707031 Z M 254.441406 112.730469 C 254.066406 112.730469 253.757812 112.429688 253.75 112.050781 C 253.738281 111.738281 253.734375 111.417969 253.734375 111.097656 L 253.734375 110.683594 C 253.742188 110.300781 254.066406 109.996094 254.441406 109.996094 C 254.824219 110 255.132812 110.316406 255.128906 110.699219 L 255.125 111.097656 C 255.125 111.40625 255.128906 111.710938 255.140625 112.015625 C 255.148438 112.398438 254.847656 112.71875 254.460938 112.730469 C 254.457031 112.730469 254.449219 112.730469 254.441406 112.730469 Z M 254.839844 116.730469 C 254.515625 116.730469 254.222656 116.5 254.15625 116.167969 C 254.074219 115.746094 254.003906 115.28125 253.945312 114.792969 C 253.898438 114.414062 254.167969 114.066406 254.550781 114.019531 C 254.9375 113.976562 255.28125 114.246094 255.324219 114.625 C 255.378906 115.082031 255.445312 115.511719 255.523438 115.902344 C 255.59375 116.28125 255.351562 116.644531 254.972656 116.71875 C 254.929688 116.726562 254.882812 116.730469 254.839844 116.730469 " fill-opacity="1" fill-rule="nonzero"/><path fill="#4b3774" d="M 332.496094 151.597656 C 332.257812 151.597656 332.027344 151.476562 331.894531 151.253906 C 331.683594 150.890625 331.449219 150.539062 331.195312 150.195312 C 330.96875 149.886719 331.035156 149.453125 331.34375 149.222656 C 331.652344 148.992188 332.089844 149.0625 332.316406 149.371094 C 332.597656 149.75 332.859375 150.148438 333.097656 150.546875 C 333.289062 150.878906 333.179688 151.304688 332.851562 151.5 C 332.738281 151.566406 332.617188 151.597656 332.496094 151.597656 Z M 333.964844 155.328125 C 333.644531 155.328125 333.359375 155.105469 333.285156 154.78125 C 333.195312 154.371094 333.082031 153.957031 332.949219 153.558594 C 332.828125 153.195312 333.023438 152.800781 333.390625 152.679688 C 333.753906 152.554688 334.148438 152.757812 334.269531 153.121094 C 334.417969 153.566406 334.542969 154.023438 334.644531 154.484375 C 334.726562 154.859375 334.488281 155.230469 334.113281 155.3125 C 334.066406 155.324219 334.011719 155.328125 333.964844 155.328125 Z M 334.230469 159.332031 C 334.214844 159.332031 334.195312 159.332031 334.179688 159.328125 C 333.792969 159.296875 333.507812 158.964844 333.535156 158.582031 C 333.5625 158.230469 333.578125 157.875 333.578125 157.519531 L 333.574219 157.304688 C 333.570312 156.921875 333.875 156.605469 334.261719 156.597656 C 334.664062 156.605469 334.960938 156.902344 334.964844 157.285156 L 334.96875 157.519531 C 334.96875 157.914062 334.953125 158.304688 334.921875 158.6875 C 334.894531 159.050781 334.589844 159.332031 334.230469 159.332031 Z M 333.453125 163.273438 C 333.382812 163.273438 333.3125 163.261719 333.246094 163.242188 C 332.875 163.125 332.671875 162.734375 332.789062 162.367188 C 332.917969 161.953125 333.035156 161.535156 333.132812 161.121094 C 333.222656 160.75 333.597656 160.519531 333.96875 160.605469 C 334.34375 160.695312 334.578125 161.070312 334.484375 161.445312 C 334.382812 161.890625 334.253906 162.339844 334.117188 162.785156 C 334.023438 163.082031 333.75 163.273438 333.453125 163.273438 " fill-opacity="1" fill-rule="nonzero"/><path fill="#4b3774" d="M 384.695312 47.71875 C 384.390625 47.71875 384.109375 47.515625 384.027344 47.207031 C 383.910156 46.785156 383.785156 46.371094 383.648438 45.960938 C 383.527344 45.59375 383.722656 45.203125 384.089844 45.078125 C 384.453125 44.957031 384.847656 45.152344 384.96875 45.515625 C 385.113281 45.957031 385.246094 46.398438 385.367188 46.839844 C 385.46875 47.210938 385.25 47.59375 384.878906 47.691406 C 384.816406 47.710938 384.753906 47.71875 384.695312 47.71875 Z M 385.386719 51.679688 C 385.027344 51.679688 384.722656 51.40625 384.695312 51.039062 C 384.65625 50.609375 384.609375 50.179688 384.546875 49.75 C 384.496094 49.367188 384.757812 49.015625 385.140625 48.960938 C 385.523438 48.910156 385.871094 49.171875 385.925781 49.554688 C 385.988281 50.007812 386.042969 50.46875 386.082031 50.925781 C 386.109375 51.308594 385.828125 51.644531 385.441406 51.675781 C 385.421875 51.679688 385.40625 51.679688 385.386719 51.679688 Z M 385.347656 55.699219 C 385.324219 55.699219 385.300781 55.699219 385.28125 55.695312 C 384.898438 55.660156 384.617188 55.316406 384.65625 54.9375 C 384.699219 54.503906 384.730469 54.070312 384.746094 53.640625 C 384.761719 53.253906 385.117188 52.957031 385.46875 52.972656 C 385.851562 52.988281 386.152344 53.3125 386.136719 53.695312 C 386.117188 54.152344 386.085938 54.613281 386.042969 55.074219 C 386.007812 55.433594 385.703125 55.699219 385.347656 55.699219 " fill-opacity="1" fill-rule="nonzero"/><path fill="#4b3774" d="M 301.566406 151.847656 C 301.386719 151.847656 301.210938 151.777344 301.074219 151.644531 L 300.003906 150.574219 C 299.730469 150.300781 299.730469 149.863281 300.003906 149.589844 C 300.273438 149.316406 300.714844 149.316406 300.988281 149.589844 L 302.058594 150.660156 C 302.332031 150.929688 302.332031 151.371094 302.058594 151.644531 C 301.921875 151.777344 301.746094 151.847656 301.566406 151.847656 " fill-opacity="1" fill-rule="nonzero"/><path fill="#4b3774" d="M 306.296875 156.574219 C 306.117188 156.574219 305.941406 156.503906 305.804688 156.371094 L 304.734375 155.296875 C 304.460938 155.027344 304.460938 154.585938 304.734375 154.316406 C 305.003906 154.042969 305.445312 154.042969 305.714844 154.316406 L 306.789062 155.386719 C 307.058594 155.65625 307.058594 156.097656 306.789062 156.371094 C 306.652344 156.503906 306.472656 156.574219 306.296875 156.574219 " fill-opacity="1" fill-rule="nonzero"/><path fill="#4b3774" d="M 300.496094 156.574219 C 300.316406 156.574219 300.140625 156.503906 300.003906 156.371094 C 299.730469 156.097656 299.730469 155.65625 300.003906 155.386719 L 301.074219 154.316406 C 301.347656 154.042969 301.789062 154.042969 302.058594 154.316406 C 302.332031 154.585938 302.332031 155.027344 302.058594 155.296875 L 300.988281 156.371094 C 300.851562 156.503906 300.671875 156.574219 300.496094 156.574219 " fill-opacity="1" fill-rule="nonzero"/><path fill="#4b3774" d="M 305.222656 151.847656 C 305.046875 151.847656 304.871094 151.777344 304.734375 151.644531 C 304.460938 151.371094 304.460938 150.929688 304.734375 150.660156 L 305.804688 149.589844 C 306.074219 149.316406 306.515625 149.316406 306.789062 149.589844 C 307.058594 149.863281 307.058594 150.300781 306.789062 150.574219 L 305.714844 151.644531 C 305.578125 151.777344 305.402344 151.847656 305.222656 151.847656 " fill-opacity="1" fill-rule="nonzero"/><path fill="#4b3774" d="M 382.085938 28.46875 C 382.082031 28.46875 382.078125 28.46875 382.074219 28.46875 C 381.691406 28.460938 381.386719 28.144531 381.390625 27.761719 L 381.4375 25.210938 C 381.441406 24.832031 381.753906 24.527344 382.132812 24.527344 C 382.132812 24.527344 382.140625 24.527344 382.144531 24.527344 C 382.527344 24.53125 382.835938 24.851562 382.828125 25.234375 L 382.78125 27.785156 C 382.777344 28.164062 382.464844 28.46875 382.085938 28.46875 " fill-opacity="1" fill-rule="nonzero"/><path fill="#4b3774" d="M 389.449219 33.488281 C 389.449219 33.488281 389.445312 33.488281 389.441406 33.488281 L 386.886719 33.445312 C 386.5 33.4375 386.195312 33.121094 386.203125 32.734375 C 386.207031 32.355469 386.519531 32.054688 386.898438 32.054688 C 386.902344 32.054688 386.90625 32.054688 386.910156 32.054688 L 389.464844 32.097656 C 389.847656 32.105469 390.15625 32.421875 390.148438 32.804688 C 390.140625 33.183594 389.832031 33.488281 389.449219 33.488281 " fill-opacity="1" fill-rule="nonzero"/><path fill="#4b3774" d="M 385.171875 30.300781 C 384.988281 30.300781 384.808594 30.230469 384.671875 30.089844 C 384.402344 29.8125 384.410156 29.371094 384.6875 29.105469 L 386.339844 27.507812 C 386.617188 27.242188 387.058594 27.25 387.324219 27.527344 C 387.589844 27.800781 387.585938 28.242188 387.308594 28.511719 L 385.652344 30.105469 C 385.519531 30.234375 385.34375 30.300781 385.171875 30.300781 " fill-opacity="1" fill-rule="nonzero"/><path fill="#4b3774" d="M 265.667969 13.113281 C 265.488281 13.113281 265.3125 13.046875 265.175781 12.910156 C 264.90625 12.640625 264.90625 12.199219 265.175781 11.925781 L 266.933594 10.171875 C 267.203125 9.898438 267.644531 9.898438 267.917969 10.171875 C 268.1875 10.445312 268.1875 10.882812 267.917969 11.152344 L 266.160156 12.910156 C 266.023438 13.046875 265.847656 13.113281 265.667969 13.113281 " fill-opacity="1" fill-rule="nonzero"/><g clip-path="url(#5a7d64cf06)"><path fill="#4b3774" d="M 272.109375 6.671875 C 271.933594 6.671875 271.757812 6.605469 271.621094 6.46875 C 271.347656 6.199219 271.347656 5.757812 271.621094 5.488281 L 273.378906 3.730469 C 273.648438 3.457031 274.089844 3.457031 274.363281 3.730469 C 274.632812 4.003906 274.632812 4.441406 274.363281 4.710938 L 272.601562 6.46875 C 272.46875 6.605469 272.289062 6.671875 272.109375 6.671875 " fill-opacity="1" fill-rule="nonzero"/></g><path fill="#4b3774" d="M 273.871094 13.113281 C 273.691406 13.113281 273.515625 13.046875 273.378906 12.910156 L 271.621094 11.152344 C 271.347656 10.882812 271.347656 10.445312 271.621094 10.171875 C 271.890625 9.902344 272.332031 9.898438 272.601562 10.171875 L 274.363281 11.925781 C 274.632812 12.199219 274.632812 12.640625 274.363281 12.910156 C 274.226562 13.046875 274.046875 13.113281 273.871094 13.113281 " fill-opacity="1" fill-rule="nonzero"/><g clip-path="url(#57f2c61cf5)"><path fill="#4b3774" d="M 267.425781 6.671875 C 267.246094 6.671875 267.070312 6.605469 266.933594 6.46875 L 265.175781 4.710938 C 264.90625 4.441406 264.90625 4 265.175781 3.730469 C 265.449219 3.457031 265.886719 3.457031 266.160156 3.730469 L 267.917969 5.488281 C 268.1875 5.757812 268.1875 6.199219 267.917969 6.46875 C 267.78125 6.605469 267.601562 6.671875 267.425781 6.671875 " fill-opacity="1" fill-rule="nonzero"/></g><path fill="#4b3774" d="M 255.953125 23.050781 C 255.777344 23.050781 255.597656 22.984375 255.460938 22.847656 L 254.390625 21.777344 C 254.121094 21.503906 254.121094 21.066406 254.390625 20.792969 C 254.664062 20.519531 255.105469 20.519531 255.375 20.792969 L 256.449219 21.863281 C 256.71875 22.136719 256.71875 22.574219 256.445312 22.847656 C 256.3125 22.984375 256.132812 23.050781 255.953125 23.050781 " fill-opacity="1" fill-rule="nonzero"/><path fill="#4b3774" d="M 260.683594 27.777344 C 260.507812 27.777344 260.328125 27.710938 260.191406 27.574219 L 259.121094 26.5 C 258.847656 26.230469 258.847656 25.789062 259.121094 25.519531 C 259.390625 25.246094 259.832031 25.246094 260.105469 25.519531 L 261.175781 26.589844 C 261.445312 26.863281 261.445312 27.300781 261.175781 27.574219 C 261.039062 27.710938 260.859375 27.777344 260.683594 27.777344 " fill-opacity="1" fill-rule="nonzero"/><path fill="#4b3774" d="M 254.882812 27.777344 C 254.707031 27.777344 254.527344 27.710938 254.390625 27.574219 C 254.121094 27.300781 254.121094 26.863281 254.390625 26.589844 L 255.460938 25.519531 C 255.734375 25.246094 256.175781 25.246094 256.445312 25.519531 C 256.71875 25.789062 256.71875 26.230469 256.449219 26.5 L 255.375 27.574219 C 255.242188 27.707031 255.0625 27.777344 254.882812 27.777344 " fill-opacity="1" fill-rule="nonzero"/><path fill="#4b3774" d="M 259.613281 23.050781 C 259.433594 23.050781 259.257812 22.984375 259.121094 22.847656 C 258.847656 22.574219 258.847656 22.136719 259.121094 21.863281 L 260.191406 20.792969 C 260.464844 20.519531 260.902344 20.519531 261.175781 20.792969 C 261.445312 21.066406 261.445312 21.503906 261.175781 21.777344 L 260.105469 22.847656 C 259.96875 22.980469 259.789062 23.050781 259.613281 23.050781 " fill-opacity="1" fill-rule="nonzero"/><path fill="#4b3774" d="M 385.382812 37.425781 C 381.941406 32.410156 377.0625 28.777344 371.40625 26.941406 C 372.507812 27.777344 373.542969 28.707031 374.5 29.703125 C 378.367188 31.636719 381.710938 34.53125 384.234375 38.210938 C 388.148438 43.910156 389.609375 50.765625 388.355469 57.515625 L 381.71875 93.125 L 381.71875 100.714844 L 389.722656 57.765625 C 391.046875 50.65625 389.507812 43.433594 385.382812 37.425781 " fill-opacity="1" fill-rule="nonzero"/><g clip-path="url(#52b3fc6132)"><path fill="#4b3774" d="M 350.699219 161.699219 C 345.332031 164.386719 339.496094 165.898438 333.625 165.898438 C 331.960938 165.898438 330.292969 165.777344 328.632812 165.527344 C 328.625 165.523438 328.589844 165.519531 328.570312 165.480469 C 328.5625 165.457031 328.554688 165.421875 328.574219 165.390625 C 329.75 163.390625 332.25 158.226562 330.085938 153.480469 C 328.253906 149.457031 323.570312 146.71875 316.171875 145.34375 L 272.1875 137.15625 C 258.195312 134.550781 248.929688 121.050781 251.535156 107.066406 L 257.640625 74.308594 L 257.640625 66.714844 L 250.167969 106.808594 C 248.84375 113.921875 250.382812 121.148438 254.507812 127.152344 C 258.628906 133.160156 264.816406 137.199219 271.933594 138.523438 L 315.917969 146.710938 C 322.84375 148 327.1875 150.46875 328.820312 154.054688 C 330.714844 158.210938 328.441406 162.875 327.375 164.683594 C 327.125 165.109375 327.101562 165.628906 327.316406 166.074219 C 327.527344 166.519531 327.941406 166.828125 328.425781 166.902344 C 330.148438 167.160156 331.875 167.289062 333.601562 167.289062 C 342.152344 167.285156 350.625 164.199219 357.785156 158.980469 C 355.523438 160.121094 353.15625 161.046875 350.699219 161.699219 " fill-opacity="1" fill-rule="nonzero"/></g><path fill="#4b3774" d="M 267.621094 27.203125 C 269.546875 23.574219 272.339844 20.433594 275.84375 18.03125 C 280.210938 15.035156 285.261719 13.480469 290.417969 13.480469 C 291.992188 13.480469 293.578125 13.625 295.15625 13.917969 L 336.789062 21.667969 L 344.386719 21.667969 L 295.410156 12.550781 C 288.296875 11.226562 281.066406 12.765625 275.054688 16.886719 C 270.441406 20.050781 266.996094 24.429688 265.042969 29.511719 C 265.847656 28.6875 266.710938 27.914062 267.621094 27.203125 " fill-opacity="1" fill-rule="nonzero"/><path fill="#4b3774" d="M 259.234375 135.871094 C 259.234375 135.871094 259.242188 135.871094 259.246094 135.871094 C 259.628906 135.839844 259.964844 136.121094 259.996094 136.503906 L 260.207031 139.046875 C 260.238281 139.425781 259.960938 139.757812 259.582031 139.796875 C 259.578125 139.796875 259.574219 139.796875 259.570312 139.796875 C 259.1875 139.828125 258.851562 139.546875 258.820312 139.164062 L 258.609375 136.617188 C 258.578125 136.242188 258.855469 135.90625 259.234375 135.871094 " fill-opacity="1" fill-rule="nonzero"/><path fill="#4b3774" d="M 251.40625 131.613281 C 251.40625 131.613281 251.410156 131.609375 251.414062 131.609375 L 253.960938 131.398438 C 254.34375 131.367188 254.679688 131.652344 254.714844 132.035156 C 254.742188 132.414062 254.464844 132.746094 254.085938 132.785156 C 254.085938 132.785156 254.082031 132.785156 254.074219 132.785156 L 251.53125 132.996094 C 251.148438 133.027344 250.8125 132.746094 250.78125 132.359375 C 250.75 131.984375 251.027344 131.648438 251.40625 131.613281 " fill-opacity="1" fill-rule="nonzero"/><path fill="#4b3774" d="M 255.980469 134.355469 C 256.160156 134.335938 256.351562 134.390625 256.5 134.515625 C 256.792969 134.765625 256.828125 135.203125 256.582031 135.496094 L 255.097656 137.25 C 254.847656 137.542969 254.40625 137.578125 254.117188 137.332031 C 253.824219 137.082031 253.785156 136.644531 254.035156 136.351562 L 255.519531 134.597656 C 255.640625 134.457031 255.808594 134.371094 255.980469 134.355469 " fill-opacity="1" fill-rule="nonzero"/><path fill="#e45a8d" d="M 343.636719 98.578125 C 333.65625 98.578125 326.320312 87.023438 326.320312 81.097656 C 326.320312 73.648438 329.160156 71.097656 343.636719 71.097656 C 352.40625 71.097656 358.558594 72.476562 358.558594 83.589844 C 358.558594 91.042969 354.453125 98.578125 343.636719 98.578125 Z M 297.621094 98.578125 C 286.800781 98.578125 282.695312 91.042969 282.695312 83.589844 C 282.695312 72.476562 288.847656 71.097656 297.621094 71.097656 C 312.089844 71.097656 314.929688 73.648438 314.929688 81.097656 C 314.929688 87.023438 307.59375 98.578125 297.621094 98.578125 Z M 364.40625 71.582031 C 361.367188 71.421875 355.300781 68.714844 347.214844 68.238281 C 346.019531 68.144531 344.816406 68.109375 343.636719 68.109375 C 337.339844 68.109375 332.757812 69.019531 329.351562 70.308594 C 325.574219 71.734375 321.445312 71.867188 320.625 71.878906 C 319.804688 71.867188 315.675781 71.734375 311.902344 70.308594 C 308.496094 69.019531 303.914062 68.109375 297.621094 68.109375 C 296.4375 68.109375 295.234375 68.144531 294.039062 68.238281 C 285.953125 68.714844 279.886719 71.421875 276.847656 71.582031 C 275.273438 71.667969 275.277344 73.605469 275.277344 74.707031 L 275.277344 75.175781 C 275.277344 77.449219 276.746094 77.386719 277.328125 78.304688 C 278.472656 80.109375 279.394531 82.390625 280 86.144531 C 281.183594 93.480469 286.175781 101.070312 297.621094 101.070312 C 307.191406 101.070312 314.40625 92.984375 317.085938 85.175781 C 318.683594 80.53125 320.164062 80.816406 320.625 80.707031 C 321.089844 80.816406 322.574219 80.53125 324.167969 85.175781 C 326.847656 92.984375 334.0625 101.070312 343.636719 101.070312 C 355.078125 101.070312 360.070312 93.480469 361.253906 86.144531 C 361.859375 82.390625 362.78125 80.109375 363.925781 78.304688 C 364.507812 77.386719 365.976562 77.449219 365.976562 75.175781 L 365.976562 74.707031 C 365.976562 73.605469 365.980469 71.667969 364.40625 71.582031 " fill-opacity="1" fill-rule="nonzero"/><path fill="#e45a8d" d="M 334.0625 91.542969 L 336.71875 91.542969 L 341.789062 75.894531 L 339.128906 75.894531 L 334.0625 91.542969 " fill-opacity="1" fill-rule="nonzero"/><path fill="#e45a8d" d="M 342.347656 80.644531 L 348.671875 84.296875 L 342.34375 87.949219 L 343.414062 91.277344 L 355.515625 84.296875 L 343.421875 77.316406 L 342.347656 80.644531 " fill-opacity="1" fill-rule="nonzero"/><path fill="#e45a8d" d="M 302.445312 77.316406 L 290.34375 84.296875 L 302.4375 91.277344 L 303.511719 87.949219 L 297.183594 84.296875 L 303.515625 80.644531 L 302.445312 77.316406 " fill-opacity="1" fill-rule="nonzero"/><path fill="#e45a8d" d="M 342.726562 97.667969 C 332.75 97.667969 325.414062 86.113281 325.414062 80.191406 C 325.414062 72.742188 328.253906 70.191406 342.726562 70.191406 C 351.496094 70.191406 357.648438 71.570312 357.648438 82.683594 C 357.648438 90.132812 353.542969 97.667969 342.726562 97.667969 Z M 296.710938 97.667969 C 285.890625 97.667969 281.785156 90.132812 281.785156 82.683594 C 281.785156 71.570312 287.941406 70.191406 296.710938 70.191406 C 311.183594 70.191406 314.023438 72.742188 314.023438 80.191406 C 314.023438 86.113281 306.6875 97.667969 296.710938 97.667969 Z M 363.5 70.671875 C 360.457031 70.511719 354.390625 67.804688 346.304688 67.332031 C 345.109375 67.234375 343.910156 67.199219 342.726562 67.199219 C 336.429688 67.199219 331.847656 68.109375 328.441406 69.398438 C 324.667969 70.824219 320.539062 70.957031 319.714844 70.972656 C 318.898438 70.957031 314.769531 70.824219 310.996094 69.398438 C 307.585938 68.109375 303.003906 67.199219 296.710938 67.199219 C 295.527344 67.199219 294.324219 67.234375 293.128906 67.332031 C 285.042969 67.804688 278.976562 70.511719 275.9375 70.671875 C 274.363281 70.757812 274.367188 72.695312 274.367188 73.796875 L 274.367188 74.265625 C 274.367188 76.539062 275.835938 76.476562 276.417969 77.394531 C 277.5625 79.199219 278.484375 81.480469 279.09375 85.234375 C 280.273438 92.570312 285.265625 100.160156 296.710938 100.160156 C 306.28125 100.160156 313.496094 92.078125 316.179688 84.269531 C 317.773438 79.625 319.253906 79.90625 319.714844 79.800781 C 320.179688 79.90625 321.664062 79.625 323.257812 84.269531 C 325.9375 92.078125 333.152344 100.160156 342.726562 100.160156 C 354.167969 100.160156 359.160156 92.570312 360.34375 85.234375 C 360.953125 81.480469 361.871094 79.199219 363.015625 77.394531 C 363.597656 76.476562 365.066406 76.539062 365.066406 74.265625 L 365.066406 73.796875 C 365.066406 72.695312 365.070312 70.757812 363.5 70.671875 " fill-opacity="1" fill-rule="nonzero"/><path fill="#e45a8d" d="M 333.152344 90.632812 L 335.808594 90.632812 L 340.878906 74.984375 L 338.21875 74.984375 L 333.152344 90.632812 " fill-opacity="1" fill-rule="nonzero"/><path fill="#e45a8d" d="M 341.4375 79.738281 L 347.761719 83.386719 L 341.433594 87.039062 L 342.503906 90.367188 L 354.605469 83.386719 L 342.511719 76.40625 L 341.4375 79.738281 " fill-opacity="1" fill-rule="nonzero"/><path fill="#e45a8d" d="M 301.535156 76.40625 L 289.433594 83.390625 L 301.527344 90.371094 L 302.601562 87.039062 L 296.277344 83.390625 L 302.605469 79.738281 L 301.535156 76.40625 " fill-opacity="1" fill-rule="nonzero"/><g fill="#f2e9f8" fill-opacity="1"><g transform="translate(288.914367, 107.406622)"><g><path d="M 1.953125 -22.921875 C 4.390625 -22.921875 6.304688 -23.394531 7.703125 -24.34375 C 9.097656 -25.289062 9.796875 -26.625 9.796875 -28.34375 L 9.796875 -36.453125 C 9.796875 -39.410156 10.316406 -41.617188 11.359375 -43.078125 C 12.398438 -44.546875 14.09375 -45.613281 16.4375 -46.28125 C 18.789062 -46.957031 22.039062 -47.296875 26.1875 -47.296875 L 26.1875 -38.390625 C 24.289062 -38.328125 23.003906 -38.179688 22.328125 -37.953125 C 21.660156 -37.734375 21.125 -37.390625 20.71875 -36.921875 C 20.320312 -36.460938 20.125 -35.828125 20.125 -35.015625 L 20.125 -26.375 C 20.125 -23.96875 19.519531 -22.117188 18.3125 -20.828125 C 17.113281 -19.546875 15.164062 -18.71875 12.46875 -18.34375 L 12.46875 -17.953125 C 15.1875 -17.523438 17.140625 -16.679688 18.328125 -15.421875 C 19.523438 -14.171875 20.125 -12.398438 20.125 -10.109375 L 20.125 -1.3125 C 20.125 -0.476562 20.347656 0.171875 20.796875 0.640625 C 21.242188 1.109375 21.835938 1.453125 22.578125 1.671875 C 23.316406 1.898438 24.519531 2.046875 26.1875 2.109375 L 26.1875 10.96875 C 22 10.96875 18.734375 10.625 16.390625 9.9375 C 14.054688 9.257812 12.375 8.179688 11.34375 6.703125 C 10.3125 5.234375 9.796875 3 9.796875 0 L 9.796875 -7.90625 C 9.796875 -9.601562 9.082031 -10.929688 7.65625 -11.890625 C 6.226562 -12.847656 4.328125 -13.328125 1.953125 -13.328125 Z M 1.953125 -22.921875 "/></g></g></g><g fill="#f2e9f8" fill-opacity="1"><g transform="translate(317.202518, 107.406622)"><g/></g></g><g fill="#f2e9f8" fill-opacity="1"><g transform="translate(334.169019, 107.406622)"><g><path d="M 21.109375 -18.5625 C 21.109375 -12.539062 20.347656 -7.066406 18.828125 -2.140625 C 17.304688 2.773438 15.082031 6.929688 12.15625 10.328125 L 1.8125 10.328125 C 4.5 6.671875 6.550781 2.332031 7.96875 -2.6875 C 9.394531 -7.71875 10.109375 -13.03125 10.109375 -18.625 C 10.109375 -24.257812 9.40625 -29.585938 8 -34.609375 C 6.601562 -39.640625 4.519531 -44.082031 1.75 -47.9375 L 12.15625 -47.9375 C 15.101562 -44.40625 17.332031 -40.128906 18.84375 -35.109375 C 20.351562 -30.085938 21.109375 -24.570312 21.109375 -18.5625 Z M 7.875 -47.359375 Z M 7.875 -47.359375 "/></g></g></g><path stroke-linecap="butt" transform="matrix(2.434559, 0, 0, 2.434559, 286.027062, 33.917106)" fill="none" stroke-linejoin="miter" d="M 0.799157 19.580069 C 1.803574 19.580069 2.591383 19.385925 3.16419 18.997636 C 3.735392 18.609347 4.022598 18.060608 4.022598 17.353023 L 4.022598 14.02529 C 4.022598 12.812288 4.235996 11.904141 4.664398 11.300849 C 5.091195 10.699161 5.787548 10.259528 6.753457 9.985159 C 7.717761 9.709185 9.052705 9.571198 10.75508 9.571198 L 10.75508 13.226249 C 9.978502 13.253525 9.452226 13.311287 9.176252 13.404348 C 8.901882 13.495805 8.682066 13.637001 8.515198 13.829541 C 8.349934 14.022081 8.2665 14.283614 8.2665 14.615746 L 8.2665 18.166505 C 8.2665 19.153272 8.019407 19.910596 7.526826 20.438477 C 7.03264 20.966357 6.231994 21.30972 5.12168 21.466961 L 5.12168 21.624202 C 6.240017 21.799093 7.043871 22.14406 7.533244 22.659105 C 8.022616 23.17415 8.2665 23.904197 8.2665 24.847643 L 8.2665 28.462582 C 8.2665 28.802736 8.357957 29.069083 8.54087 29.261623 C 8.725387 29.454163 8.969271 29.595359 9.275731 29.68842 C 9.580586 29.779876 10.074772 29.837638 10.75508 29.864915 L 10.75508 33.50713 C 9.035056 33.50713 7.693694 33.367539 6.734203 33.086751 C 5.773107 32.807568 5.081568 32.364726 4.65798 31.758225 C 4.234392 31.15012 4.022598 30.230741 4.022598 29.000089 L 4.022598 25.750977 C 4.022598 25.053019 3.728974 24.505885 3.144936 24.112782 C 2.559293 23.71968 1.777902 23.523931 0.799157 23.523931 Z M 27.260573 21.375505 C 27.260573 23.846435 26.9493 26.09434 26.323544 28.11601 C 25.699394 30.13768 24.784829 31.846473 23.579849 33.243992 L 19.335947 33.243992 C 20.435029 31.74218 21.278996 29.957976 21.863034 27.892984 C 22.448677 25.827993 22.740696 23.645873 22.740696 21.349833 C 22.740696 19.034539 22.45349 16.844397 21.877475 14.779405 C 21.299855 12.714413 20.444656 10.890097 19.30867 9.309664 L 23.579849 9.309664 C 24.794456 10.760132 25.710625 12.515455 26.331567 14.575633 C 26.950904 16.637416 27.260573 18.904575 27.260573 21.375505 Z M 27.260573 21.375505 " stroke="#4b3774" stroke-width="1.006328" stroke-opacity="1" stroke-miterlimit="4"/><g fill="#4b3774" fill-opacity="1"><g transform="translate(9.457186, 133.39381)"><g><path d="M 43.8125 -89.375 C 49.269531 -89.375 54.113281 -88.578125 58.34375 -86.984375 C 62.582031 -85.390625 66.59375 -83 70.375 -79.8125 L 60.546875 -68.109375 C 57.953125 -70.117188 55.394531 -71.628906 52.875 -72.640625 C 50.351562 -73.648438 47.664062 -74.15625 44.8125 -74.15625 C 38.9375 -74.15625 34.300781 -71.675781 30.90625 -66.71875 C 27.507812 -61.769531 25.8125 -54.132812 25.8125 -43.8125 C 25.8125 -33.65625 27.507812 -26.117188 30.90625 -21.203125 C 34.300781 -16.296875 39.019531 -13.84375 45.0625 -13.84375 C 48.257812 -13.84375 51.15625 -14.453125 53.75 -15.671875 C 56.351562 -16.890625 59.164062 -18.628906 62.1875 -20.890625 L 71.375 -9.0625 C 68.101562 -5.789062 64.140625 -3.101562 59.484375 -1 C 54.828125 1.09375 49.6875 2.140625 44.0625 2.140625 C 36 2.140625 28.988281 0.378906 23.03125 -3.140625 C 17.070312 -6.671875 12.4375 -11.894531 9.125 -18.8125 C 5.8125 -25.738281 4.15625 -34.070312 4.15625 -43.8125 C 4.15625 -53.289062 5.851562 -61.472656 9.25 -68.359375 C 12.644531 -75.242188 17.34375 -80.46875 23.34375 -84.03125 C 29.351562 -87.59375 36.175781 -89.375 43.8125 -89.375 Z M 43.8125 -89.375 "/></g></g></g><g fill="#4b3774" fill-opacity="1"><g transform="translate(81.842411, 133.39381)"><g><path d="M 43.4375 -89.375 C 55.851562 -89.375 65.523438 -85.390625 72.453125 -77.421875 C 79.378906 -69.453125 82.84375 -58.207031 82.84375 -43.6875 C 82.84375 -34.195312 81.265625 -26.007812 78.109375 -19.125 C 74.960938 -12.25 70.429688 -6.984375 64.515625 -3.328125 C 58.597656 0.316406 51.570312 2.140625 43.4375 2.140625 C 35.289062 2.140625 28.28125 0.335938 22.40625 -3.265625 C 16.53125 -6.878906 12.019531 -12.101562 8.875 -18.9375 C 5.726562 -25.78125 4.15625 -34.03125 4.15625 -43.6875 C 4.15625 -53.082031 5.726562 -61.222656 8.875 -68.109375 C 12.019531 -74.992188 16.53125 -80.257812 22.40625 -83.90625 C 28.28125 -87.550781 35.289062 -89.375 43.4375 -89.375 Z M 43.4375 -74.28125 C 37.476562 -74.28125 33.050781 -71.863281 30.15625 -67.03125 C 27.257812 -62.207031 25.8125 -54.425781 25.8125 -43.6875 C 25.8125 -32.9375 27.28125 -25.128906 30.21875 -20.265625 C 33.15625 -15.398438 37.5625 -12.96875 43.4375 -12.96875 C 49.476562 -12.96875 53.945312 -15.378906 56.84375 -20.203125 C 59.738281 -25.023438 61.1875 -32.851562 61.1875 -43.6875 C 61.1875 -54.507812 59.71875 -62.3125 56.78125 -67.09375 C 53.84375 -71.882812 49.394531 -74.28125 43.4375 -74.28125 Z M 43.4375 -74.28125 "/></g></g></g><g fill="#4b3774" fill-opacity="1"><g transform="translate(168.830539, 133.39381)"><g><path d="M 32.484375 -87.25 C 46.160156 -87.25 57.128906 -84.160156 65.390625 -77.984375 C 73.660156 -71.816406 77.796875 -60.507812 77.796875 -44.0625 C 77.796875 -27.863281 73.765625 -16.46875 65.703125 -9.875 C 57.648438 -3.289062 47.207031 0 34.375 0 L 8.1875 0 L 8.1875 -87.25 Z M 28.828125 -72.265625 L 28.828125 -14.984375 L 35.625 -14.984375 C 42.425781 -14.984375 47.585938 -17.101562 51.109375 -21.34375 C 54.640625 -25.582031 56.40625 -33.15625 56.40625 -44.0625 C 56.40625 -51.53125 55.519531 -57.320312 53.75 -61.4375 C 51.988281 -65.550781 49.597656 -68.382812 46.578125 -69.9375 C 43.554688 -71.488281 39.820312 -72.265625 35.375 -72.265625 Z M 28.828125 -72.265625 "/></g></g></g><g fill="#4b3774" fill-opacity="1"><g transform="translate(389.798789, 127.425692)"><g><path d="M 53.53125 -45.265625 C 59.195312 -44.191406 63.816406 -42.09375 67.390625 -38.96875 C 70.972656 -35.84375 72.765625 -31.15625 72.765625 -24.90625 C 72.765625 -15.78125 69.492188 -9.347656 62.953125 -5.609375 C 56.421875 -1.867188 47.273438 0 35.515625 0 L 8.015625 0 L 8.015625 -85.46875 L 32.1875 -85.46875 C 44.1875 -85.46875 53.351562 -83.757812 59.6875 -80.34375 C 66.019531 -76.9375 69.1875 -71.367188 69.1875 -63.640625 C 69.1875 -58.617188 67.6875 -54.566406 64.6875 -51.484375 C 61.6875 -48.398438 57.96875 -46.328125 53.53125 -45.265625 Z M 28.234375 -71.15625 L 28.234375 -51.296875 L 35.765625 -51.296875 C 44.316406 -51.296875 48.59375 -54.753906 48.59375 -61.671875 C 48.59375 -65.117188 47.441406 -67.5625 45.140625 -69 C 42.835938 -70.4375 39.175781 -71.15625 34.15625 -71.15625 Z M 35.640625 -14.671875 C 40.984375 -14.671875 45.03125 -15.472656 47.78125 -17.078125 C 50.539062 -18.679688 51.921875 -21.660156 51.921875 -26.015625 C 51.921875 -33.910156 46.988281 -37.859375 37.125 -37.859375 L 28.234375 -37.859375 L 28.234375 -14.671875 Z M 35.640625 -14.671875 "/></g></g></g><g fill="#4b3774" fill-opacity="1"><g transform="translate(465.890791, 127.425692)"><g><path d="M 74.125 -85.46875 L 46.734375 -32.0625 L 46.734375 0 L 26.515625 0 L 26.515625 -31.9375 L -0.859375 -85.46875 L 21.21875 -85.46875 L 37 -47.84375 L 52.78125 -85.46875 Z M 74.125 -85.46875 "/></g></g></g><g fill="#4b3774" fill-opacity="1"><g transform="translate(539.146325, 127.425692)"><g><path d="M 31.578125 -12.953125 C 31.578125 -6.128906 30.363281 -0.5 27.9375 3.9375 C 25.507812 8.382812 22.300781 11.859375 18.3125 14.359375 C 14.320312 16.867188 9.570312 19.03125 4.0625 20.84375 L -1.359375 6.53125 C 2.253906 5.132812 4.96875 3.53125 6.78125 1.71875 C 8.59375 -0.0820312 9.804688 -2.175781 10.421875 -4.5625 C 11.035156 -6.945312 11.34375 -9.988281 11.34375 -13.6875 L 11.34375 -85.46875 L 31.578125 -85.46875 Z M 31.578125 -12.953125 "/></g></g></g><g fill="#4b3774" fill-opacity="1"><g transform="translate(578.240617, 127.425692)"><g><path d="M 53.890625 0 L 53.890625 -36.625 L 28.234375 -36.625 L 28.234375 0 L 8.015625 0 L 8.015625 -85.46875 L 28.234375 -85.46875 L 28.234375 -52.421875 L 53.890625 -52.421875 L 53.890625 -85.46875 L 74.125 -85.46875 L 74.125 0 Z M 53.890625 0 "/></g></g></g><g fill="#4b3774" fill-opacity="1"><g transform="translate(660.375588, 127.425692)"><g><path d="M 60.4375 -85.46875 L 58.328125 -71.03125 L 28.234375 -71.03125 L 28.234375 -50.5625 L 54.515625 -50.5625 L 54.515625 -36.375 L 28.234375 -36.375 L 28.234375 -14.546875 L 60.4375 -14.546875 L 60.4375 0 L 8.015625 0 L 8.015625 -85.46875 Z M 60.4375 -85.46875 "/></g></g></g><g fill="#4b3774" fill-opacity="1"><g transform="translate(725.24494, 127.425692)"><g><path d="M 36.140625 -32.6875 L 28.234375 -32.6875 L 28.234375 0 L 8.015625 0 L 8.015625 -85.46875 L 36.015625 -85.46875 C 47.691406 -85.46875 56.46875 -83.328125 62.34375 -79.046875 C 68.21875 -74.773438 71.15625 -68.238281 71.15625 -59.4375 C 71.15625 -53.9375 69.835938 -49.351562 67.203125 -45.6875 C 64.578125 -42.03125 60.425781 -38.925781 54.75 -36.375 L 76.46875 0 L 53.640625 0 Z M 28.234375 -46.625 L 36.75 -46.625 C 41.269531 -46.625 44.660156 -47.648438 46.921875 -49.703125 C 49.179688 -51.753906 50.3125 -55 50.3125 -59.4375 C 50.3125 -63.550781 49.097656 -66.550781 46.671875 -68.4375 C 44.253906 -70.332031 40.535156 -71.28125 35.515625 -71.28125 L 28.234375 -71.28125 Z M 28.234375 -46.625 "/></g></g></g><g fill="#4b3774" fill-opacity="1"><g transform="translate(801.336942, 127.425692)"><g><path d="M 35.515625 -87.5625 C 41.929688 -87.5625 47.503906 -86.65625 52.234375 -84.84375 C 56.960938 -83.039062 61.257812 -80.289062 65.125 -76.59375 L 55.75 -65.609375 C 49.90625 -70.378906 43.65625 -72.765625 37 -72.765625 C 33.46875 -72.765625 30.671875 -72.046875 28.609375 -70.609375 C 26.554688 -69.171875 25.53125 -67.09375 25.53125 -64.375 C 25.53125 -62.488281 25.976562 -60.945312 26.875 -59.75 C 27.78125 -58.5625 29.382812 -57.429688 31.6875 -56.359375 C 34 -55.285156 37.457031 -54.007812 42.0625 -52.53125 C 50.769531 -49.738281 57.175781 -46.304688 61.28125 -42.234375 C 65.394531 -38.171875 67.453125 -32.394531 67.453125 -24.90625 C 67.453125 -19.5625 66.097656 -14.851562 63.390625 -10.78125 C 60.679688 -6.71875 56.773438 -3.554688 51.671875 -1.296875 C 46.578125 0.960938 40.535156 2.09375 33.546875 2.09375 C 26.554688 2.09375 20.367188 0.984375 14.984375 -1.234375 C 9.597656 -3.453125 4.972656 -6.410156 1.109375 -10.109375 L 11.34375 -21.328125 C 14.632812 -18.535156 18.023438 -16.441406 21.515625 -15.046875 C 25.015625 -13.648438 28.816406 -12.953125 32.921875 -12.953125 C 37.117188 -12.953125 40.429688 -13.875 42.859375 -15.71875 C 45.285156 -17.570312 46.5 -20.144531 46.5 -23.4375 C 46.5 -25.570312 46.046875 -27.359375 45.140625 -28.796875 C 44.234375 -30.234375 42.671875 -31.523438 40.453125 -32.671875 C 38.234375 -33.828125 35.023438 -35.0625 30.828125 -36.375 C 21.378906 -39.257812 14.660156 -42.796875 10.671875 -46.984375 C 6.679688 -51.179688 4.6875 -56.484375 4.6875 -62.890625 C 4.6875 -67.828125 6 -72.164062 8.625 -75.90625 C 11.257812 -79.644531 14.921875 -82.519531 19.609375 -84.53125 C 24.296875 -86.550781 29.597656 -87.5625 35.515625 -87.5625 Z M 35.515625 -87.5625 "/></g></g></g><g fill="#4b3774" fill-opacity="1"><g transform="translate(871.879304, 127.425692)"><g><path d="M 35.515625 -87.5625 C 41.929688 -87.5625 47.503906 -86.65625 52.234375 -84.84375 C 56.960938 -83.039062 61.257812 -80.289062 65.125 -76.59375 L 55.75 -65.609375 C 49.90625 -70.378906 43.65625 -72.765625 37 -72.765625 C 33.46875 -72.765625 30.671875 -72.046875 28.609375 -70.609375 C 26.554688 -69.171875 25.53125 -67.09375 25.53125 -64.375 C 25.53125 -62.488281 25.976562 -60.945312 26.875 -59.75 C 27.78125 -58.5625 29.382812 -57.429688 31.6875 -56.359375 C 34 -55.285156 37.457031 -54.007812 42.0625 -52.53125 C 50.769531 -49.738281 57.175781 -46.304688 61.28125 -42.234375 C 65.394531 -38.171875 67.453125 -32.394531 67.453125 -24.90625 C 67.453125 -19.5625 66.097656 -14.851562 63.390625 -10.78125 C 60.679688 -6.71875 56.773438 -3.554688 51.671875 -1.296875 C 46.578125 0.960938 40.535156 2.09375 33.546875 2.09375 C 26.554688 2.09375 20.367188 0.984375 14.984375 -1.234375 C 9.597656 -3.453125 4.972656 -6.410156 1.109375 -10.109375 L 11.34375 -21.328125 C 14.632812 -18.535156 18.023438 -16.441406 21.515625 -15.046875 C 25.015625 -13.648438 28.816406 -12.953125 32.921875 -12.953125 C 37.117188 -12.953125 40.429688 -13.875 42.859375 -15.71875 C 45.285156 -17.570312 46.5 -20.144531 46.5 -23.4375 C 46.5 -25.570312 46.046875 -27.359375 45.140625 -28.796875 C 44.234375 -30.234375 42.671875 -31.523438 40.453125 -32.671875 C 38.234375 -33.828125 35.023438 -35.0625 30.828125 -36.375 C 21.378906 -39.257812 14.660156 -42.796875 10.671875 -46.984375 C 6.679688 -51.179688 4.6875 -56.484375 4.6875 -62.890625 C 4.6875 -67.828125 6 -72.164062 8.625 -75.90625 C 11.257812 -79.644531 14.921875 -82.519531 19.609375 -84.53125 C 24.296875 -86.550781 29.597656 -87.5625 35.515625 -87.5625 Z M 35.515625 -87.5625 "/></g></g></g><g fill="#4b3774" fill-opacity="1"><g transform="translate(942.421665, 127.425692)"><g><path d="M 28.234375 -85.46875 L 28.234375 0 L 8.015625 0 L 8.015625 -85.46875 Z M 28.234375 -85.46875 "/></g></g></g><g fill="#4b3774" fill-opacity="1"><g transform="translate(978.55612, 127.425692)"><g><path d="M 42.921875 -87.5625 C 48.265625 -87.5625 53.007812 -86.78125 57.15625 -85.21875 C 61.3125 -83.65625 65.238281 -81.3125 68.9375 -78.1875 L 59.328125 -66.71875 C 56.773438 -68.695312 54.265625 -70.175781 51.796875 -71.15625 C 49.328125 -72.144531 46.695312 -72.640625 43.90625 -72.640625 C 38.144531 -72.640625 33.597656 -70.210938 30.265625 -65.359375 C 26.941406 -60.515625 25.28125 -53.035156 25.28125 -42.921875 C 25.28125 -32.972656 26.941406 -25.59375 30.265625 -20.78125 C 33.597656 -15.96875 38.226562 -13.5625 44.15625 -13.5625 C 47.28125 -13.5625 50.113281 -14.15625 52.65625 -15.34375 C 55.207031 -16.539062 57.960938 -18.25 60.921875 -20.46875 L 69.921875 -8.875 C 66.722656 -5.664062 62.835938 -3.035156 58.265625 -0.984375 C 53.703125 1.066406 48.671875 2.09375 43.171875 2.09375 C 35.273438 2.09375 28.40625 0.367188 22.5625 -3.078125 C 16.726562 -6.535156 12.1875 -11.65625 8.9375 -18.4375 C 5.6875 -25.21875 4.0625 -33.378906 4.0625 -42.921875 C 4.0625 -52.210938 5.726562 -60.226562 9.0625 -66.96875 C 12.394531 -73.707031 17 -78.820312 22.875 -82.3125 C 28.757812 -85.8125 35.441406 -87.5625 42.921875 -87.5625 Z M 42.921875 -87.5625 "/></g></g></g><g fill="#4b3774" fill-opacity="1"><g transform="translate(1049.468405, 127.425692)"><g><path d="M 53.03125 0 L 48.59375 -18.375 L 23.671875 -18.375 L 19.359375 0 L -1.609375 0 L 24.171875 -85.46875 L 48.71875 -85.46875 L 74.484375 0 Z M 27.125 -33.046875 L 45.140625 -33.046875 L 36.140625 -70.796875 Z M 27.125 -33.046875 "/></g></g></g></svg>